Coordinates
version=1
nRows=24
nColumns=19
inDegrees=yes

Units are S.I. units (second, meters, Newtons, ...)
If the header above contains a line with 'inDegrees', this indicates whether rotational values are in degrees (yes) or radians (no).

endheader
time	pelvis_tilt	pelvis_list	pelvis_rotation	pelvis_tx	pelvis_ty	pelvis_tz	hip_flexion_r	hip_adduction_r	hip_rotation_r	knee_angle_r	knee_angle_r_beta	ankle_angle_r	hip_flexion_l	hip_adduction_l	hip_rotation_l	knee_angle_l	knee_angle_l_beta	ankle_angle_l
     11.93333333	     -8.52140980	     -3.77615306	      0.04261740	      2.28186166	      0.96381830	      0.97390410	     27.92546557	      5.86351863	     -6.67963775	     12.36679735	      0.21584133	     -9.14341765	     -9.75649352	     -4.02927813	     -6.47931225	     37.89651659	      0.66141899	    -12.89988428
     11.94000000	     -7.87125706	     -4.26564600	     -0.44272793	      2.28266422	      0.96139783	      0.97477152	     27.06280624	      6.67008759	     -7.11723511	     13.53719635	      0.23626865	     -7.86610891	     -9.76294161	     -4.46999747	     -6.21570937	     40.64285632	      0.70935166	    -12.48047243
     11.94666667	     -7.30378521	     -4.67881330	     -0.93174924	      2.28325453	      0.95854701	      0.97555400	     26.38720580	      7.33909218	     -7.50662415	     15.23751256	      0.26594476	     -6.17225814	     -9.56564295	     -4.80885297	     -5.94695556	     43.50037953	      0.75922485	    -12.00950982
     11.95333333	     -7.07905872	     -4.83420274	     -1.40795911	      2.28359490	      0.95503494	      0.97623350	     26.19152818	      7.68492868	     -7.72435222	     17.42663016	      0.30415207	     -3.99480233	     -8.83719682	     -4.86793908	     -5.60153979	     46.49154394	      0.81143052	    -11.52158350
     11.96000000	     -6.30794054	     -5.17782803	     -1.83495416	      2.28404028	      0.95193200	      0.97675548	     25.29327181	      8.19386417	     -7.82892644	     19.61171313	      0.34228897	     -1.57871188	     -8.71910705	     -5.13320701	     -5.38254358	     49.35226196	      0.86135946	    -10.95954077
     11.96666667	     -5.95990245	     -5.23852752	     -2.21271757	      2.28412223	      0.94823956	      0.97724101	     24.94206455	      8.37116330	     -7.74309162	     22.07936009	      0.38535753	      1.10849420	     -7.95069467	     -5.11843522	     -5.04511202	     52.32789550	      0.91329407	    -10.36553694
     11.97333333	     -5.43288300	     -5.31744415	     -2.48346919	      2.28409221	      0.94476556	      0.97763103	     24.32743553	      8.53111401	     -7.58671825	     24.46053295	      0.42691684	      3.82822374	     -7.28697841	     -5.20251620	     -4.78304438	     55.26041169	      0.96447613	     -9.70791342
     11.98000000	     -4.92704852	     -5.37079159	     -2.66006456	      2.28384968	      0.94136414	      0.97798891	     23.68789102	      8.64102669	     -7.36488997	     26.74154360	      0.46672798	      6.55486533	     -6.48689928	     -5.31517015	     -4.49550616	     58.16032680	      1.01508920	     -8.95577482
     11.98666667	     -4.18102079	     -5.49153910	     -2.67861410	      2.28353947	      0.93850136	      0.97830087	     22.65709883	      8.78996167	     -7.14832853	     28.72402875	      0.50132888	      9.12570885	     -5.86781041	     -5.66080883	     -4.33632589	     60.95507010	      1.06386667	     -8.15574510
     11.99333333	     -4.11183049	     -5.36006835	     -2.64824710	      2.28274169	      0.93511572	      0.97856466	     22.47367294	      8.65148740	     -6.90911704	     30.84213013	      0.53829672	     11.53010479	     -4.29535164	     -5.66295495	     -3.81404818	     63.81959149	      1.11386200	     -7.17100956
     12.00000000	     -3.82779504	     -5.34519720	     -2.48763639	      2.28188423	      0.93238168	      0.97881005	     21.89752210	      8.60351849	     -6.77404883	     32.58554505	      0.56872505	     13.67624729	     -2.89498370	     -5.93135268	     -3.41678599	     66.52246016	      1.16103596	     -6.13412107
     12.00666667	     -3.27825674	     -5.42814525	     -2.27026867	      2.28106737	      0.93037284	      0.97907962	     20.86350850	      8.65420560	     -6.66671746	     33.96767939	      0.59284784	     15.64515245	     -1.77264997	     -6.38495065	     -3.11966802	     68.99625860	      1.20421188	     -5.00528566
     12.01333333	     -3.51663654	     -5.33803308	     -1.87371086	      2.27982264	      0.92801495	      0.97912886	     20.68593757	      8.45073982	     -6.75031155	     35.23703610	      0.61500230	     17.16348553	      0.45880997	     -6.59527601	     -2.41227396	     71.50235011	      1.24795143	     -3.75234976
     12.02000000	     -3.22397899	     -5.39407083	     -1.50928817	      2.27875284	      0.92675489	      0.97922431	     19.68590761	      8.43056588	     -6.78605256	     36.04189493	      0.62904974	     18.52883696	      2.03259831	     -7.02322625	     -1.94127246	     73.65080859	      1.28544911	     -2.34490000
     12.02666667	     -3.46129213	     -5.40152927	     -1.01003196	      2.27750264	      0.92540835	      0.97918075	     19.16245982	      8.31565269	     -7.00365548	     36.59862123	      0.63876644	     19.57452444	      4.34475980	     -7.34291956	     -1.20748193	     75.71682962	      1.32150798	     -1.03618618
     12.03333333	     -3.56783170	     -5.41183332	     -0.58675893	      2.27633952	      0.92473802	      0.97916291	     18.30951677	      8.24755696	     -7.13038248	     36.81019731	      0.64245914	     20.43753949	      6.46353880	     -7.63910867	     -0.60036781	     77.46037491	      1.35193858	      0.37198859
     12.04000000	     -3.62421328	     -5.45177741	     -0.17563779	      2.27526512	      0.92464627	      0.97912575	     17.20911106	      8.24033265	     -7.24150042	     36.65056099	      0.63967296	     21.06156609	      8.50333873	     -7.92430763	     -0.00903145	     78.91714065	      1.37736394	      1.79974009
     12.04666667	     -3.68484608	     -5.44269189	      0.14661371	      2.27416377	      0.92501061	      0.97911949	     15.97639271	      8.23500107	     -7.22972700	     36.22465685	      0.63223953	     21.49088280	     10.50683670	     -8.09698114	      0.50600953	     80.09177657	      1.39786520	      3.27547699
     12.05333333	     -3.88771730	     -5.38756651	      0.44094429	      2.27323899	      0.92572487	      0.97912582	     14.74036295	      8.21323406	     -7.19227672	     35.50576115	      0.61969244	     21.72338980	     12.61122002	     -8.18263298	      0.97260143	     80.96413826	      1.41309079	      4.57842771
     12.06000000	     -4.09047420	     -5.26468802	      0.61880867	      2.27235926	      0.92687296	      0.97921270	     13.39125900	      8.17019773	     -7.01921742	     34.57256663	      0.60340512	     21.76204614	     14.62392323	     -8.14953675	      1.31508685	     81.53499982	      1.42305420	      5.86300345
     12.06666667	     -4.30587544	     -5.08256188	      0.72076204	      2.27156559	      0.92843847	      0.97935150	     11.95808722	      8.10577121	     -6.72808982	     33.44294544	      0.58368951	     21.58865525	     16.55304712	     -8.01148141	      1.56682636	     81.80111123	      1.42769872	      7.05851637
     12.07333333	     -4.47348804	     -4.84836813	      0.75857133	      2.27090972	      0.93047196	      0.97956352	     10.37880965	      8.01376076	     -6.37517697	     32.11689377	      0.56054554	     21.20302680	     18.31499080	     -7.81382016	      1.69660309	     81.74951130	      1.42679813	      8.15817307
     12.08000000	     -4.64368256	     -4.48728984	      0.68607533	      2.27045475	      0.93285883	      0.97989725	      8.75619227	      7.80192829	     -5.90680477	     30.71373411	      0.53605579	     20.61886809	     19.92764679	     -7.48522012	      1.64701130	     81.37403494	      1.42024484	      9.17615110
     12.08666667	     -5.01668476	     -3.93842080	      0.51686844	      2.27003648	      0.93539461	      0.98027487	      7.39456589	      7.37391773	     -5.37208858	     29.37053291	      0.51261250	     19.85580660	     21.64020817	     -6.91325408	      1.46543798	     80.70199996	      1.40851561	     10.02206635
